<?xml version="1.0" encoding="UTF-8" standalone="no"?>
<!DOCTYPE svg PUBLIC "-//W3C//DTD SVG 1.1//EN"
 "http://www.w3.org/Graphics/SVG/1.1/DTD/svg11.dtd">
<!-- Generated by graphviz version 2.38.0 (20140413.2041)
 -->
<!-- Title: %3 Pages: 1 -->
<svg width="1850pt" height="1277pt"
 viewBox="0.00 0.00 1849.96 1277.00" xmlns="http://www.w3.org/2000/svg" xmlns:xlink="http://www.w3.org/1999/xlink">
<g id="graph0" class="graph" transform="scale(1 1) rotate(0) translate(4 1273)">
<title>%3</title>
<polygon fill="white" stroke="none" points="-4,4 -4,-1273 1845.96,-1273 1845.96,4 -4,4"/>
<g id="clust1" class="cluster"><title>cluster&#45;nid&#45;10</title>
<polygon fill="none" stroke="#cccccc" points="27.2599,-484 27.2599,-554 486,-554 486,-484 27.2599,-484"/>
</g>
<g id="clust2" class="cluster"><title>cluster&#45;nid&#45;11</title>
<polygon fill="none" stroke="#cccccc" points="27.2599,-406 27.2599,-476 486,-476 486,-406 27.2599,-406"/>
</g>
<g id="clust3" class="cluster"><title>cluster&#45;nid&#45;12</title>
<polygon fill="none" stroke="#cccccc" points="15.9462,-645 15.9462,-715 162.054,-715 162.054,-645 15.9462,-645"/>
</g>
<g id="clust5" class="cluster"><title>cluster&#45;nid&#45;14</title>
<polygon fill="none" stroke="#cccccc" points="789.5,-997 789.5,-1067 1240.48,-1067 1240.48,-997 789.5,-997"/>
</g>
<g id="clust6" class="cluster"><title>cluster&#45;nid&#45;15</title>
<polygon fill="none" stroke="#cccccc" points="789.5,-912 789.5,-982 1240.48,-982 1240.48,-912 789.5,-912"/>
</g>
<g id="clust7" class="cluster"><title>cluster&#45;nid&#45;16</title>
<polygon fill="none" stroke="#cccccc" points="1440.48,-406 1440.48,-476 1833.96,-476 1833.96,-406 1440.48,-406"/>
</g>
<g id="clust8" class="cluster"><title>cluster&#45;nid&#45;17</title>
<polygon fill="none" stroke="#cccccc" points="27.2599,-328 27.2599,-398 486,-398 486,-328 27.2599,-328"/>
</g>
<g id="clust9" class="cluster"><title>cluster&#45;nid&#45;18&#45;in</title>
<polygon fill="none" stroke="#cccccc" points="743.5,-192 743.5,-276 905.5,-276 905.5,-192 743.5,-192"/>
</g>
<g id="clust11" class="cluster"><title>cluster&#45;nid&#45;19&#45;in</title>
<polygon fill="none" stroke="#cccccc" points="734.5,-100 734.5,-184 914.5,-184 914.5,-100 734.5,-100"/>
</g>
<g id="clust14" class="cluster"><title>cluster&#45;nid&#45;1a&#45;out</title>
<polygon fill="none" stroke="#cccccc" points="370.5,-901 370.5,-985 531.5,-985 531.5,-901 370.5,-901"/>
</g>
<g id="clust15" class="cluster"><title>cluster&#45;nid&#45;1b&#45;in</title>
<polygon fill="none" stroke="#cccccc" points="743.5,-8 743.5,-92 905.5,-92 905.5,-8 743.5,-8"/>
</g>
<g id="clust16" class="cluster"><title>cluster&#45;nid&#45;1b&#45;out</title>
<polygon fill="none" stroke="#cccccc" points="54,-1085 54,-1169 532,-1169 532,-1085 54,-1085"/>
</g>
<g id="clust17" class="cluster"><title>cluster&#45;nid&#45;1c&#45;in</title>
<polygon fill="none" stroke="#cccccc" points="734.5,-820 734.5,-904 914.5,-904 914.5,-820 734.5,-820"/>
</g>
<g id="clust19" class="cluster"><title>cluster&#45;nid&#45;1d&#45;in</title>
<polygon fill="none" stroke="#cccccc" points="743.5,-728 743.5,-812 905.5,-812 905.5,-728 743.5,-728"/>
</g>
<g id="clust20" class="cluster"><title>cluster&#45;nid&#45;1d&#45;out</title>
<polygon fill="none" stroke="#cccccc" points="54,-809 54,-893 532,-893 532,-809 54,-809"/>
</g>
<g id="clust22" class="cluster"><title>cluster&#45;nid&#45;1e&#45;out</title>
<polygon fill="none" stroke="#cccccc" points="370,-993 370,-1077 532,-1077 532,-993 370,-993"/>
</g>
<g id="clust23" class="cluster"><title>cluster&#45;nid&#45;1f&#45;in</title>
<polygon fill="none" stroke="#cccccc" points="732,-636 732,-720 917,-720 917,-636 732,-636"/>
</g>
<g id="clust25" class="cluster"><title>cluster&#45;nid&#45;20&#45;in</title>
<polygon fill="none" stroke="#cccccc" points="370,-638 370,-722 532,-722 532,-638 370,-638"/>
</g>
<g id="clust27" class="cluster"><title>cluster&#45;nid&#45;21&#45;in</title>
<polygon fill="none" stroke="#cccccc" points="743.5,-544 743.5,-628 905.5,-628 905.5,-544 743.5,-544"/>
</g>
<g id="clust29" class="cluster"><title>cluster&#45;nid&#45;22</title>
<polygon fill="none" stroke="#cccccc" points="734.607,-346 734.607,-536 1228.38,-536 1228.38,-346 734.607,-346"/>
</g>
<g id="clust31" class="cluster"><title>cluster&#45;nid&#45;24</title>
<polygon fill="none" stroke="#cccccc" points="789.5,-284 789.5,-338 859.5,-338 859.5,-284 789.5,-284"/>
</g>
<g id="clust32" class="cluster"><title>cluster&#45;nid&#45;25</title>
<polygon fill="none" stroke="#cccccc" points="377.946,-1184 377.946,-1254 524.054,-1254 524.054,-1184 377.946,-1184"/>
</g>
<g id="clust34" class="cluster"><title>cluster&#45;nid&#45;26&#45;out</title>
<polygon fill="none" stroke="#cccccc" points="8,-1177 8,-1261 170,-1261 170,-1177 8,-1177"/>
</g>
<!-- nid&#45;10 -->
<g id="node1" class="node"><title>nid&#45;10</title>
<ellipse fill="none" stroke="blue" cx="89" cy="-519" rx="53.9813" ry="26.7407"/>
<text text-anchor="middle" x="89" y="-522.8" font-family="Times,serif" font-size="14.00">0x10</text>
<text text-anchor="middle" x="89" y="-507.8" font-family="Times,serif" font-size="14.00">Stereo R/L</text>
</g>
<!-- nid&#45;10&#45;ampout -->
<g id="node2" class="node"><title>nid&#45;10&#45;ampout</title>
<polygon fill="none" stroke="#c8c8c8" points="478,-519 437.5,-537 437.5,-501 478,-519"/>
</g>
<!-- nid&#45;10&#45;&gt;nid&#45;10&#45;ampout -->
<g id="edge1" class="edge"><title>nid&#45;10&#45;&gt;nid&#45;10&#45;ampout</title>
<path fill="none" stroke="#c8c8c8" d="M143.119,-519C225.397,-519 379.637,-519 432.044,-519"/>
<polygon fill="#c8c8c8" stroke="#c8c8c8" points="432.359,-520.75 437.359,-519 432.359,-517.25 432.359,-520.75"/>
</g>
<!-- nid&#45;18&#45;in -->
<g id="node19" class="node"><title>nid&#45;18&#45;in</title>
<polygon fill="none" stroke="green" points="897.5,-268 751.5,-268 751.5,-200 897.5,-200 897.5,-268"/>
<text text-anchor="middle" x="824.5" y="-252.8" font-family="Times,serif" font-size="14.00">0x18</text>
<text text-anchor="middle" x="824.5" y="-237.8" font-family="Times,serif" font-size="14.00">[N/A] Other at Ext N/A</text>
<text text-anchor="middle" x="824.5" y="-222.8" font-family="Times,serif" font-size="14.00">Stereo</text>
<text text-anchor="middle" x="824.5" y="-207.8" font-family="Times,serif" font-size="14.00">OUT EAPD Detect</text>
</g>
<!-- nid&#45;10&#45;ampout&#45;&gt;nid&#45;18&#45;in -->
<g id="edge16" class="edge"><title>nid&#45;10&#45;ampout&#45;&gt;nid&#45;18&#45;in</title>
<path fill="none" stroke="#333333" d="M466.368,-513.686C483.017,-507.158 510.866,-495.072 532,-480 634.348,-407.011 630.101,-353.614 732,-280 735.405,-277.54 738.961,-275.143 742.61,-272.817"/>
<polygon fill="#333333" stroke="#333333" points="744.563,-275.726 751.27,-267.524 740.912,-269.753 744.563,-275.726"/>
</g>
<!-- nid&#45;19&#45;in -->
<g id="node20" class="node"><title>nid&#45;19&#45;in</title>
<polygon fill="none" stroke="green" points="906.5,-176 742.5,-176 742.5,-108 906.5,-108 906.5,-176"/>
<text text-anchor="middle" x="824.5" y="-160.8" font-family="Times,serif" font-size="14.00">0x19</text>
<text text-anchor="middle" x="824.5" y="-145.8" font-family="Times,serif" font-size="14.00">[Jack] HP Out at Ext Front</text>
<text text-anchor="middle" x="824.5" y="-130.8" font-family="Times,serif" font-size="14.00">Stereo</text>
<text text-anchor="middle" x="824.5" y="-115.8" font-family="Times,serif" font-size="14.00">OUT HP Detect</text>
</g>
<!-- nid&#45;10&#45;ampout&#45;&gt;nid&#45;19&#45;in -->
<g id="edge19" class="edge"><title>nid&#45;10&#45;ampout&#45;&gt;nid&#45;19&#45;in</title>
<path fill="none" stroke="#333333" d="M467.51,-514.142C484.708,-508.18 512.581,-496.757 532,-480 651.093,-377.236 613.538,-291.49 732,-188 734.26,-186.026 736.619,-184.112 739.055,-182.26"/>
<polygon fill="#333333" stroke="#333333" points="741.469,-184.838 747.599,-176.197 737.418,-179.129 741.469,-184.838"/>
</g>
<!-- nid&#45;1b&#45;in -->
<g id="node21" class="node"><title>nid&#45;1b&#45;in</title>
<polygon fill="none" stroke="green" points="897.5,-84 751.5,-84 751.5,-16 897.5,-16 897.5,-84"/>
<text text-anchor="middle" x="824.5" y="-68.8" font-family="Times,serif" font-size="14.00">0x1b</text>
<text text-anchor="middle" x="824.5" y="-53.8" font-family="Times,serif" font-size="14.00">[N/A] Other at Ext N/A</text>
<text text-anchor="middle" x="824.5" y="-38.8" font-family="Times,serif" font-size="14.00">Stereo</text>
<text text-anchor="middle" x="824.5" y="-23.8" font-family="Times,serif" font-size="14.00">IN OUT EAPD Detect</text>
</g>
<!-- nid&#45;10&#45;ampout&#45;&gt;nid&#45;1b&#45;in -->
<g id="edge23" class="edge"><title>nid&#45;10&#45;ampout&#45;&gt;nid&#45;1b&#45;in</title>
<path fill="none" stroke="#333333" d="M468.215,-514.462C485.781,-508.846 513.734,-497.786 532,-480 669.863,-345.753 594.961,-231.087 732,-96 735.383,-92.665 739.057,-89.5251 742.924,-86.5759"/>
<polygon fill="#333333" stroke="#333333" points="744.96,-89.4226 751.1,-80.7885 740.916,-83.7089 744.96,-89.4226"/>
</g>
<!-- nid&#45;1c&#45;in -->
<g id="node23" class="node"><title>nid&#45;1c&#45;in</title>
<polygon fill="none" stroke="green" points="906.5,-896 742.5,-896 742.5,-828 906.5,-828 906.5,-896"/>
<text text-anchor="middle" x="824.5" y="-880.8" font-family="Times,serif" font-size="14.00">0x1c</text>
<text text-anchor="middle" x="824.5" y="-865.8" font-family="Times,serif" font-size="14.00">[Jack] HP Out at Ext Front</text>
<text text-anchor="middle" x="824.5" y="-850.8" font-family="Times,serif" font-size="14.00">Stereo</text>
<text text-anchor="middle" x="824.5" y="-835.8" font-family="Times,serif" font-size="14.00">OUT HP Detect</text>
</g>
<!-- nid&#45;10&#45;ampout&#45;&gt;nid&#45;1c&#45;in -->
<g id="edge26" class="edge"><title>nid&#45;10&#45;ampout&#45;&gt;nid&#45;1c&#45;in</title>
<path fill="none" stroke="gray" stroke-dasharray="5,2" d="M458.442,-527.827C486.865,-566.293 605.279,-721.584 732,-816 734.954,-818.201 738.029,-820.347 741.187,-822.432"/>
<polygon fill="gray" stroke="gray" points="739.384,-825.434 749.71,-827.808 743.118,-819.513 739.384,-825.434"/>
</g>
<!-- nid&#45;1d&#45;in -->
<g id="node24" class="node"><title>nid&#45;1d&#45;in</title>
<polygon fill="none" stroke="green" points="897.5,-804 751.5,-804 751.5,-736 897.5,-736 897.5,-804"/>
<text text-anchor="middle" x="824.5" y="-788.8" font-family="Times,serif" font-size="14.00">0x1d</text>
<text text-anchor="middle" x="824.5" y="-773.8" font-family="Times,serif" font-size="14.00">[N/A] Other at Ext N/A</text>
<text text-anchor="middle" x="824.5" y="-758.8" font-family="Times,serif" font-size="14.00">Stereo</text>
<text text-anchor="middle" x="824.5" y="-743.8" font-family="Times,serif" font-size="14.00">IN OUT EAPD Detect</text>
</g>
<!-- nid&#45;10&#45;ampout&#45;&gt;nid&#45;1d&#45;in -->
<g id="edge30" class="edge"><title>nid&#45;10&#45;ampout&#45;&gt;nid&#45;1d&#45;in</title>
<path fill="none" stroke="#333333" d="M461.27,-526.68C495.692,-554.999 619.955,-655.474 732,-724 735.771,-726.306 739.672,-728.598 743.643,-730.857"/>
<polygon fill="#333333" stroke="#333333" points="741.983,-733.939 752.423,-735.742 745.386,-727.822 741.983,-733.939"/>
</g>
<!-- nid&#45;1f&#45;in -->
<g id="node26" class="node"><title>nid&#45;1f&#45;in</title>
<polygon fill="none" stroke="green" points="909,-712 740,-712 740,-644 909,-644 909,-712"/>
<text text-anchor="middle" x="824.5" y="-696.8" font-family="Times,serif" font-size="14.00">0x1f</text>
<text text-anchor="middle" x="824.5" y="-681.8" font-family="Times,serif" font-size="14.00">[Fixed] Speaker at Int Front</text>
<text text-anchor="middle" x="824.5" y="-666.8" font-family="Times,serif" font-size="14.00">Stereo</text>
<text text-anchor="middle" x="824.5" y="-651.8" font-family="Times,serif" font-size="14.00">OUT</text>
</g>
<!-- nid&#45;10&#45;ampout&#45;&gt;nid&#45;1f&#45;in -->
<g id="edge33" class="edge"><title>nid&#45;10&#45;ampout&#45;&gt;nid&#45;1f&#45;in</title>
<path fill="none" stroke="gray" stroke-dasharray="5,2" d="M465.662,-524.847C508.566,-543.21 643.17,-600.82 734.495,-639.906"/>
<polygon fill="gray" stroke="gray" points="733.175,-643.148 743.745,-643.865 735.929,-636.713 733.175,-643.148"/>
</g>
<!-- nid&#45;21&#45;in -->
<g id="node28" class="node"><title>nid&#45;21&#45;in</title>
<polygon fill="none" stroke="green" points="897.5,-620 751.5,-620 751.5,-552 897.5,-552 897.5,-620"/>
<text text-anchor="middle" x="824.5" y="-604.8" font-family="Times,serif" font-size="14.00">0x21</text>
<text text-anchor="middle" x="824.5" y="-589.8" font-family="Times,serif" font-size="14.00">[N/A] Other at Ext N/A</text>
<text text-anchor="middle" x="824.5" y="-574.8" font-family="Times,serif" font-size="14.00">Stereo</text>
<text text-anchor="middle" x="824.5" y="-559.8" font-family="Times,serif" font-size="14.00">OUT EAPD</text>
</g>
<!-- nid&#45;10&#45;ampout&#45;&gt;nid&#45;21&#45;in -->
<g id="edge37" class="edge"><title>nid&#45;10&#45;ampout&#45;&gt;nid&#45;21&#45;in</title>
<path fill="none" stroke="#333333" d="M470.677,-522.368C519.485,-531.171 653.147,-555.277 741.225,-571.162"/>
<polygon fill="#333333" stroke="#333333" points="740.736,-574.63 751.198,-572.96 741.978,-567.741 740.736,-574.63"/>
</g>
<!-- nid&#45;22&#45;ampin&#45;16 -->
<g id="node29" class="node"><title>nid&#45;22&#45;ampin&#45;16</title>
<polygon fill="none" stroke="#c8c8c8" points="906.286,-505 783.607,-528 783.607,-482 906.286,-505"/>
<text text-anchor="middle" x="824.5" y="-501.3" font-family="Times,serif" font-size="14.00">0 (0x10)</text>
</g>
<!-- nid&#45;10&#45;ampout&#45;&gt;nid&#45;22&#45;ampin&#45;16 -->
<g id="edge43" class="edge"><title>nid&#45;10&#45;ampout&#45;&gt;nid&#45;22&#45;ampin&#45;16</title>
<path fill="none" stroke="#333333" d="M476.089,-518.092C535.87,-515.839 692.032,-509.954 773.069,-506.9"/>
<polygon fill="#333333" stroke="#333333" points="773.654,-510.381 783.515,-506.507 773.39,-503.386 773.654,-510.381"/>
</g>
<!-- nid&#45;24 -->
<g id="node32" class="node"><title>nid&#45;24</title>
<polygon fill="none" stroke="black" points="851.5,-330 797.5,-330 797.5,-292 851.5,-292 851.5,-330"/>
<text text-anchor="middle" x="824.5" y="-314.8" font-family="Times,serif" font-size="14.00">0x24</text>
<text text-anchor="middle" x="824.5" y="-299.8" font-family="Times,serif" font-size="14.00">Mono</text>
</g>
<!-- nid&#45;10&#45;ampout&#45;&gt;nid&#45;24 -->
<g id="edge46" class="edge"><title>nid&#45;10&#45;ampout&#45;&gt;nid&#45;24</title>
<path fill="none" stroke="gray" stroke-dasharray="5,2" d="M465.341,-513.24C481.484,-506.102 509.32,-493.252 532,-480 625.245,-425.517 635.487,-390.459 732,-342 749.667,-333.129 770.462,-325.856 787.76,-320.589"/>
<polygon fill="gray" stroke="gray" points="788.887,-323.906 797.49,-317.723 786.909,-317.191 788.887,-323.906"/>
</g>
<!-- nid&#45;11 -->
<g id="node3" class="node"><title>nid&#45;11</title>
<ellipse fill="none" stroke="blue" cx="89" cy="-441" rx="53.9813" ry="26.7407"/>
<text text-anchor="middle" x="89" y="-444.8" font-family="Times,serif" font-size="14.00">0x11</text>
<text text-anchor="middle" x="89" y="-429.8" font-family="Times,serif" font-size="14.00">Stereo R/L</text>
</g>
<!-- nid&#45;11&#45;ampout -->
<g id="node4" class="node"><title>nid&#45;11&#45;ampout</title>
<polygon fill="none" stroke="#0000ff" points="478,-441 437.5,-459 437.5,-423 478,-441"/>
</g>
<!-- nid&#45;11&#45;&gt;nid&#45;11&#45;ampout -->
<g id="edge2" class="edge"><title>nid&#45;11&#45;&gt;nid&#45;11&#45;ampout</title>
<path fill="none" stroke="#0000ff" d="M143.119,-441C225.397,-441 379.637,-441 432.044,-441"/>
<polygon fill="#0000ff" stroke="#0000ff" points="432.359,-442.75 437.359,-441 432.359,-439.25 432.359,-442.75"/>
</g>
<!-- nid&#45;11&#45;ampout&#45;&gt;nid&#45;18&#45;in -->
<g id="edge17" class="edge"><title>nid&#45;11&#45;ampout&#45;&gt;nid&#45;18&#45;in</title>
<path fill="none" stroke="gray" stroke-dasharray="5,2" d="M464.936,-435.151C480.913,-427.823 508.821,-414.683 532,-402 623.342,-352.02 640.966,-330.537 732,-280 736.246,-277.643 740.627,-275.265 745.067,-272.898"/>
<polygon fill="gray" stroke="gray" points="747.023,-275.824 754.237,-268.064 743.758,-269.631 747.023,-275.824"/>
</g>
<!-- nid&#45;11&#45;ampout&#45;&gt;nid&#45;19&#45;in -->
<g id="edge20" class="edge"><title>nid&#45;11&#45;ampout&#45;&gt;nid&#45;19&#45;in</title>
<path fill="none" stroke="gray" stroke-dasharray="5,2" d="M466.46,-435.812C483.194,-429.402 511.123,-417.427 532,-402 636.698,-324.632 627.778,-266.007 732,-188 734.949,-185.793 738.02,-183.641 741.174,-181.551"/>
<polygon fill="gray" stroke="gray" points="743.109,-184.469 749.69,-176.166 739.368,-178.553 743.109,-184.469"/>
</g>
<!-- nid&#45;11&#45;ampout&#45;&gt;nid&#45;1b&#45;in -->
<g id="edge24" class="edge"><title>nid&#45;11&#45;ampout&#45;&gt;nid&#45;1b&#45;in</title>
<path fill="none" stroke="gray" stroke-dasharray="5,2" d="M467.578,-436.219C484.836,-430.327 512.763,-418.966 532,-402 653.853,-294.533 610.807,-204.21 732,-96 735.374,-92.9877 738.98,-90.1199 742.74,-87.3976"/>
<polygon fill="gray" stroke="gray" points="744.873,-90.1799 751.186,-81.6707 740.945,-84.3863 744.873,-90.1799"/>
</g>
<!-- nid&#45;11&#45;ampout&#45;&gt;nid&#45;1c&#45;in -->
<g id="edge27" class="edge"><title>nid&#45;11&#45;ampout&#45;&gt;nid&#45;1c&#45;in</title>
<path fill="none" stroke="#333333" d="M467.712,-445.632C485.09,-451.391 513.124,-462.634 532,-480 659.896,-597.661 604.826,-697.559 732,-816 734.135,-817.988 736.371,-819.91 738.689,-821.767"/>
<polygon fill="#333333" stroke="#333333" points="736.73,-824.672 746.845,-827.827 740.905,-819.053 736.73,-824.672"/>
</g>
<!-- nid&#45;11&#45;ampout&#45;&gt;nid&#45;1d&#45;in -->
<g id="edge31" class="edge"><title>nid&#45;11&#45;ampout&#45;&gt;nid&#45;1d&#45;in</title>
<path fill="none" stroke="gray" stroke-dasharray="5,2" d="M466.944,-446.062C483.88,-452.278 511.757,-463.999 532,-480 642.004,-566.952 622.53,-636.377 732,-724 735.451,-726.762 739.094,-729.421 742.86,-731.972"/>
<polygon fill="gray" stroke="gray" points="740.969,-734.917 751.273,-737.38 744.754,-729.028 740.969,-734.917"/>
</g>
<!-- nid&#45;11&#45;ampout&#45;&gt;nid&#45;1f&#45;in -->
<g id="edge34" class="edge"><title>nid&#45;11&#45;ampout&#45;&gt;nid&#45;1f&#45;in</title>
<path fill="none" stroke="gray" stroke-dasharray="5,2" d="M465.446,-446.585C481.692,-453.551 509.63,-466.232 532,-480 627.08,-538.521 637.28,-572.898 732,-632 735.75,-634.34 739.634,-636.659 743.592,-638.939"/>
<polygon fill="gray" stroke="gray" points="741.916,-642.012 752.348,-643.863 745.347,-635.911 741.916,-642.012"/>
</g>
<!-- nid&#45;11&#45;ampout&#45;&gt;nid&#45;21&#45;in -->
<g id="edge38" class="edge"><title>nid&#45;11&#45;ampout&#45;&gt;nid&#45;21&#45;in</title>
<path fill="none" stroke="gray" stroke-dasharray="5,2" d="M466.11,-446.507C510.656,-463.894 650.729,-518.566 741.714,-554.078"/>
<polygon fill="gray" stroke="gray" points="740.594,-557.398 751.182,-557.774 743.139,-550.877 740.594,-557.398"/>
</g>
<!-- nid&#45;22&#45;ampin&#45;17 -->
<g id="node30" class="node"><title>nid&#45;22&#45;ampin&#45;17</title>
<polygon fill="none" stroke="#c8c8c8" points="906.286,-441 783.607,-464 783.607,-418 906.286,-441"/>
<text text-anchor="middle" x="824.5" y="-437.3" font-family="Times,serif" font-size="14.00">1 (0x11)</text>
</g>
<!-- nid&#45;11&#45;ampout&#45;&gt;nid&#45;22&#45;ampin&#45;17 -->
<g id="edge44" class="edge"><title>nid&#45;11&#45;ampout&#45;&gt;nid&#45;22&#45;ampin&#45;17</title>
<path fill="none" stroke="#333333" d="M478.123,-441C539.372,-441 693.09,-441 773.19,-441"/>
<polygon fill="#333333" stroke="#333333" points="773.519,-444.5 783.519,-441 773.519,-437.5 773.519,-444.5"/>
</g>
<!-- nid&#45;11&#45;ampout&#45;&gt;nid&#45;24 -->
<g id="edge47" class="edge"><title>nid&#45;11&#45;ampout&#45;&gt;nid&#45;24</title>
<path fill="none" stroke="gray" stroke-dasharray="5,2" d="M466.551,-435.779C507.983,-420.929 630.168,-377.251 732,-342 750.416,-335.625 770.965,-328.65 787.917,-322.934"/>
<polygon fill="gray" stroke="gray" points="789.078,-326.236 797.438,-319.728 786.844,-319.602 789.078,-326.236"/>
</g>
<!-- nid&#45;12 -->
<g id="node5" class="node"><title>nid&#45;12</title>
<ellipse fill="none" stroke="blue" cx="89" cy="-680" rx="65.1077" ry="26.7407"/>
<text text-anchor="middle" x="89" y="-683.8" font-family="Times,serif" font-size="14.00">0x12</text>
<text text-anchor="middle" x="89" y="-668.8" font-family="Times,serif" font-size="14.00">Stereo Digital</text>
</g>
<!-- nid&#45;20&#45;in -->
<g id="node27" class="node"><title>nid&#45;20&#45;in</title>
<polygon fill="none" stroke="green" points="524,-714 378,-714 378,-646 524,-646 524,-714"/>
<text text-anchor="middle" x="451" y="-698.8" font-family="Times,serif" font-size="14.00">0x20</text>
<text text-anchor="middle" x="451" y="-683.8" font-family="Times,serif" font-size="14.00">[N/A] Other at Ext N/A</text>
<text text-anchor="middle" x="451" y="-668.8" font-family="Times,serif" font-size="14.00">Stereo Digital</text>
<text text-anchor="middle" x="451" y="-653.8" font-family="Times,serif" font-size="14.00">OUT Detect</text>
</g>
<!-- nid&#45;12&#45;&gt;nid&#45;20&#45;in -->
<g id="edge36" class="edge"><title>nid&#45;12&#45;&gt;nid&#45;20&#45;in</title>
<path fill="none" stroke="#333333" d="M154.361,-680C213.969,-680 302.917,-680 367.673,-680"/>
<polygon fill="#333333" stroke="#333333" points="367.85,-683.5 377.85,-680 367.85,-676.5 367.85,-683.5"/>
</g>
<!-- nid&#45;14 -->
<g id="node6" class="node"><title>nid&#45;14</title>
<ellipse fill="none" stroke="red" cx="1178.74" cy="-1032" rx="53.9813" ry="26.7407"/>
<text text-anchor="middle" x="1178.74" y="-1035.8" font-family="Times,serif" font-size="14.00">0x14</text>
<text text-anchor="middle" x="1178.74" y="-1020.8" font-family="Times,serif" font-size="14.00">Stereo R/L</text>
</g>
<!-- nid&#45;14&#45;ampin -->
<g id="node7" class="node"><title>nid&#45;14&#45;ampin</title>
<polygon fill="none" stroke="#0e0efa" points="851.5,-1032 811,-1050 811,-1014 851.5,-1032"/>
</g>
<!-- nid&#45;14&#45;ampin&#45;&gt;nid&#45;14 -->
<g id="edge3" class="edge"><title>nid&#45;14&#45;ampin&#45;&gt;nid&#45;14</title>
<path fill="none" stroke="#0e0efa" d="M851.687,-1032C908.086,-1032 1042.19,-1032 1119.7,-1032"/>
<polygon fill="#0e0efa" stroke="#0e0efa" points="1119.73,-1033.75 1124.73,-1032 1119.73,-1030.25 1119.73,-1033.75"/>
</g>
<!-- nid&#45;1a&#45;out -->
<g id="node8" class="node"><title>nid&#45;1a&#45;out</title>
<polygon fill="none" stroke="green" points="523.5,-977 378.5,-977 378.5,-909 523.5,-909 523.5,-977"/>
<text text-anchor="middle" x="451" y="-961.8" font-family="Times,serif" font-size="14.00">0x1a</text>
<text text-anchor="middle" x="451" y="-946.8" font-family="Times,serif" font-size="14.00">[Jack] Mic at Ext Front</text>
<text text-anchor="middle" x="451" y="-931.8" font-family="Times,serif" font-size="14.00">Stereo</text>
<text text-anchor="middle" x="451" y="-916.8" font-family="Times,serif" font-size="14.00">IN Detect</text>
</g>
<!-- nid&#45;1a&#45;out&#45;&gt;nid&#45;14&#45;ampin -->
<g id="edge4" class="edge"><title>nid&#45;1a&#45;out&#45;&gt;nid&#45;14&#45;ampin</title>
<path fill="none" stroke="#333333" d="M523.629,-960.16C609.041,-980.622 747.014,-1013.68 800.909,-1026.59"/>
<polygon fill="#333333" stroke="#333333" points="800.266,-1030.03 810.806,-1028.96 801.897,-1023.23 800.266,-1030.03"/>
</g>
<!-- nid&#45;15&#45;ampin -->
<g id="node13" class="node"><title>nid&#45;15&#45;ampin</title>
<polygon fill="none" stroke="#c8c8c8" points="851.5,-947 811,-965 811,-929 851.5,-947"/>
</g>
<!-- nid&#45;1a&#45;out&#45;&gt;nid&#45;15&#45;ampin -->
<g id="edge9" class="edge"><title>nid&#45;1a&#45;out&#45;&gt;nid&#45;15&#45;ampin</title>
<path fill="none" stroke="#333333" d="M523.629,-943.771C608.863,-944.689 746.438,-946.17 800.57,-946.753"/>
<polygon fill="#333333" stroke="#333333" points="800.769,-950.255 810.806,-946.863 800.844,-943.256 800.769,-950.255"/>
</g>
<!-- nid&#45;1b&#45;out -->
<g id="node9" class="node"><title>nid&#45;1b&#45;out</title>
<polygon fill="none" stroke="green" points="524,-1161 378,-1161 378,-1093 524,-1093 524,-1161"/>
<text text-anchor="middle" x="451" y="-1145.8" font-family="Times,serif" font-size="14.00">0x1b</text>
<text text-anchor="middle" x="451" y="-1130.8" font-family="Times,serif" font-size="14.00">[N/A] Other at Ext N/A</text>
<text text-anchor="middle" x="451" y="-1115.8" font-family="Times,serif" font-size="14.00">Stereo</text>
<text text-anchor="middle" x="451" y="-1100.8" font-family="Times,serif" font-size="14.00">IN OUT EAPD Detect</text>
</g>
<!-- nid&#45;1b&#45;out&#45;&gt;nid&#45;14&#45;ampin -->
<g id="edge5" class="edge"><title>nid&#45;1b&#45;out&#45;&gt;nid&#45;14&#45;ampin</title>
<path fill="none" stroke="gray" stroke-dasharray="5,2" d="M524.069,-1108.57C609.546,-1086.71 747.206,-1051.51 800.967,-1037.76"/>
<polygon fill="gray" stroke="gray" points="802.018,-1041.11 810.839,-1035.24 800.284,-1034.32 802.018,-1041.11"/>
</g>
<!-- nid&#45;1b&#45;out&#45;&gt;nid&#45;15&#45;ampin -->
<g id="edge10" class="edge"><title>nid&#45;1b&#45;out&#45;&gt;nid&#45;15&#45;ampin</title>
<path fill="none" stroke="gray" stroke-dasharray="5,2" d="M522.313,-1092.93C607.882,-1051.47 747.6,-983.775 801.41,-957.703"/>
<polygon fill="gray" stroke="gray" points="803.234,-960.709 810.707,-953.199 800.181,-954.409 803.234,-960.709"/>
</g>
<!-- nid&#45;1d&#45;out -->
<g id="node10" class="node"><title>nid&#45;1d&#45;out</title>
<polygon fill="none" stroke="green" points="524,-885 378,-885 378,-817 524,-817 524,-885"/>
<text text-anchor="middle" x="451" y="-869.8" font-family="Times,serif" font-size="14.00">0x1d</text>
<text text-anchor="middle" x="451" y="-854.8" font-family="Times,serif" font-size="14.00">[N/A] Other at Ext N/A</text>
<text text-anchor="middle" x="451" y="-839.8" font-family="Times,serif" font-size="14.00">Stereo</text>
<text text-anchor="middle" x="451" y="-824.8" font-family="Times,serif" font-size="14.00">IN OUT EAPD Detect</text>
</g>
<!-- nid&#45;1d&#45;out&#45;&gt;nid&#45;14&#45;ampin -->
<g id="edge6" class="edge"><title>nid&#45;1d&#45;out&#45;&gt;nid&#45;14&#45;ampin</title>
<path fill="none" stroke="gray" stroke-dasharray="5,2" d="M521.876,-885.045C607.573,-926.797 748.057,-995.243 801.726,-1021.39"/>
<polygon fill="gray" stroke="gray" points="800.461,-1024.67 810.983,-1025.9 803.527,-1018.38 800.461,-1024.67"/>
</g>
<!-- nid&#45;1d&#45;out&#45;&gt;nid&#45;15&#45;ampin -->
<g id="edge11" class="edge"><title>nid&#45;1d&#45;out&#45;&gt;nid&#45;15&#45;ampin</title>
<path fill="none" stroke="gray" stroke-dasharray="5,2" d="M524.069,-869.624C609.546,-891.712 747.206,-927.285 800.967,-941.177"/>
<polygon fill="gray" stroke="gray" points="800.282,-944.615 810.839,-943.728 802.033,-937.838 800.282,-944.615"/>
</g>
<!-- nid&#45;1e&#45;out -->
<g id="node11" class="node"><title>nid&#45;1e&#45;out</title>
<polygon fill="none" stroke="green" points="524,-1069 378,-1069 378,-1001 524,-1001 524,-1069"/>
<text text-anchor="middle" x="451" y="-1053.8" font-family="Times,serif" font-size="14.00">0x1e</text>
<text text-anchor="middle" x="451" y="-1038.8" font-family="Times,serif" font-size="14.00">[N/A] Other at Ext N/A</text>
<text text-anchor="middle" x="451" y="-1023.8" font-family="Times,serif" font-size="14.00">Stereo</text>
<text text-anchor="middle" x="451" y="-1008.8" font-family="Times,serif" font-size="14.00">IN</text>
</g>
<!-- nid&#45;1e&#45;out&#45;&gt;nid&#45;14&#45;ampin -->
<g id="edge7" class="edge"><title>nid&#45;1e&#45;out&#45;&gt;nid&#45;14&#45;ampin</title>
<path fill="none" stroke="gray" stroke-dasharray="5,2" d="M524.069,-1034.42C609.367,-1033.73 746.631,-1032.62 800.629,-1032.18"/>
<polygon fill="gray" stroke="gray" points="800.868,-1035.68 810.839,-1032.1 800.811,-1028.68 800.868,-1035.68"/>
</g>
<!-- nid&#45;1e&#45;out&#45;&gt;nid&#45;15&#45;ampin -->
<g id="edge12" class="edge"><title>nid&#45;1e&#45;out&#45;&gt;nid&#45;15&#45;ampin</title>
<path fill="none" stroke="gray" stroke-dasharray="5,2" d="M524.069,-1017.93C609.546,-997.681 747.206,-965.072 800.967,-952.338"/>
<polygon fill="gray" stroke="gray" points="801.915,-955.71 810.839,-949.999 800.302,-948.898 801.915,-955.71"/>
</g>
<!-- nid&#45;15 -->
<g id="node12" class="node"><title>nid&#45;15</title>
<ellipse fill="none" stroke="red" cx="1178.74" cy="-947" rx="53.9813" ry="26.7407"/>
<text text-anchor="middle" x="1178.74" y="-950.8" font-family="Times,serif" font-size="14.00">0x15</text>
<text text-anchor="middle" x="1178.74" y="-935.8" font-family="Times,serif" font-size="14.00">Stereo R/L</text>
</g>
<!-- nid&#45;15&#45;ampin&#45;&gt;nid&#45;15 -->
<g id="edge8" class="edge"><title>nid&#45;15&#45;ampin&#45;&gt;nid&#45;15</title>
<path fill="none" stroke="#c8c8c8" d="M851.687,-947C908.086,-947 1042.19,-947 1119.7,-947"/>
<polygon fill="#c8c8c8" stroke="#c8c8c8" points="1119.73,-948.75 1124.73,-947 1119.73,-945.25 1119.73,-948.75"/>
</g>
<!-- nid&#45;16 -->
<g id="node14" class="node"><title>nid&#45;16</title>
<ellipse fill="none" stroke="red" cx="1772.22" cy="-441" rx="53.9813" ry="26.7407"/>
<text text-anchor="middle" x="1772.22" y="-444.8" font-family="Times,serif" font-size="14.00">0x16</text>
<text text-anchor="middle" x="1772.22" y="-429.8" font-family="Times,serif" font-size="14.00">Stereo R/L</text>
</g>
<!-- nid&#45;16&#45;ampin -->
<g id="node15" class="node"><title>nid&#45;16&#45;ampin</title>
<polygon fill="none" stroke="#c8c8c8" points="1502.48,-441 1461.98,-459 1461.98,-423 1502.48,-441"/>
</g>
<!-- nid&#45;16&#45;ampin&#45;&gt;nid&#45;16 -->
<g id="edge13" class="edge"><title>nid&#45;16&#45;ampin&#45;&gt;nid&#45;16</title>
<path fill="none" stroke="#c8c8c8" d="M1502.64,-441C1549.57,-441 1649.13,-441 1712.97,-441"/>
<polygon fill="#c8c8c8" stroke="#c8c8c8" points="1713.27,-442.75 1718.27,-441 1713.27,-439.25 1713.27,-442.75"/>
</g>
<!-- nid&#45;22 -->
<g id="node16" class="node"><title>nid&#45;22</title>
<polygon fill="none" stroke="black" points="1220.52,-441 1199.63,-472.054 1157.85,-472.054 1136.96,-441 1157.85,-409.946 1199.63,-409.946 1220.52,-441"/>
<text text-anchor="middle" x="1178.74" y="-444.8" font-family="Times,serif" font-size="14.00">0x22</text>
<text text-anchor="middle" x="1178.74" y="-429.8" font-family="Times,serif" font-size="14.00">Stereo</text>
</g>
<!-- nid&#45;22&#45;&gt;nid&#45;16&#45;ampin -->
<g id="edge14" class="edge"><title>nid&#45;22&#45;&gt;nid&#45;16&#45;ampin</title>
<path fill="none" stroke="#333333" d="M1220.41,-441C1283.26,-441 1401.92,-441 1451.65,-441"/>
<polygon fill="#333333" stroke="#333333" points="1451.96,-444.5 1461.96,-441 1451.96,-437.5 1451.96,-444.5"/>
</g>
<!-- nid&#45;17 -->
<g id="node17" class="node"><title>nid&#45;17</title>
<ellipse fill="none" stroke="blue" cx="89" cy="-363" rx="53.9813" ry="26.7407"/>
<text text-anchor="middle" x="89" y="-366.8" font-family="Times,serif" font-size="14.00">0x17</text>
<text text-anchor="middle" x="89" y="-351.8" font-family="Times,serif" font-size="14.00">Stereo R/L</text>
</g>
<!-- nid&#45;17&#45;ampout -->
<g id="node18" class="node"><title>nid&#45;17&#45;ampout</title>
<polygon fill="none" stroke="#0000ff" points="478,-363 437.5,-381 437.5,-345 478,-363"/>
</g>
<!-- nid&#45;17&#45;&gt;nid&#45;17&#45;ampout -->
<g id="edge15" class="edge"><title>nid&#45;17&#45;&gt;nid&#45;17&#45;ampout</title>
<path fill="none" stroke="#0000ff" d="M143.119,-363C225.397,-363 379.637,-363 432.044,-363"/>
<polygon fill="#0000ff" stroke="#0000ff" points="432.359,-364.75 437.359,-363 432.359,-361.25 432.359,-364.75"/>
</g>
<!-- nid&#45;17&#45;ampout&#45;&gt;nid&#45;18&#45;in -->
<g id="edge18" class="edge"><title>nid&#45;17&#45;ampout&#45;&gt;nid&#45;18&#45;in</title>
<path fill="none" stroke="gray" stroke-dasharray="5,2" d="M467.023,-357.783C512.537,-341.979 651.308,-293.792 741.681,-262.411"/>
<polygon fill="gray" stroke="gray" points="743.061,-265.637 751.36,-259.05 740.765,-259.024 743.061,-265.637"/>
</g>
<!-- nid&#45;17&#45;ampout&#45;&gt;nid&#45;19&#45;in -->
<g id="edge21" class="edge"><title>nid&#45;17&#45;ampout&#45;&gt;nid&#45;19&#45;in</title>
<path fill="none" stroke="gray" stroke-dasharray="5,2" d="M462.467,-355.963C498.936,-331.549 624.07,-248.686 732,-188 736.141,-185.672 740.414,-183.328 744.747,-180.998"/>
<polygon fill="gray" stroke="gray" points="746.51,-184.025 753.701,-176.244 743.228,-177.842 746.51,-184.025"/>
</g>
<!-- nid&#45;17&#45;ampout&#45;&gt;nid&#45;1b&#45;in -->
<g id="edge25" class="edge"><title>nid&#45;17&#45;ampout&#45;&gt;nid&#45;1b&#45;in</title>
<path fill="none" stroke="gray" stroke-dasharray="5,2" d="M459.465,-354.186C490.146,-318.36 610.646,-181.493 732,-96 735.434,-93.5808 739.013,-91.2164 742.682,-88.9172"/>
<polygon fill="gray" stroke="gray" points="744.62,-91.8356 751.378,-83.6758 741.007,-85.8403 744.62,-91.8356"/>
</g>
<!-- nid&#45;17&#45;ampout&#45;&gt;nid&#45;1c&#45;in -->
<g id="edge28" class="edge"><title>nid&#45;17&#45;ampout&#45;&gt;nid&#45;1c&#45;in</title>
<path fill="none" stroke="gray" stroke-dasharray="5,2" d="M468.318,-367.434C485.973,-372.959 514.005,-383.94 532,-402 676.236,-546.752 588.652,-670.369 732,-816 733.855,-817.885 735.804,-819.706 737.829,-821.464"/>
<polygon fill="gray" stroke="gray" points="735.973,-824.46 745.98,-827.938 740.326,-818.978 735.973,-824.46"/>
</g>
<!-- nid&#45;17&#45;ampout&#45;&gt;nid&#45;1d&#45;in -->
<g id="edge32" class="edge"><title>nid&#45;17&#45;ampout&#45;&gt;nid&#45;1d&#45;in</title>
<path fill="none" stroke="gray" stroke-dasharray="5,2" d="M467.651,-367.699C484.975,-373.517 512.96,-384.813 532,-402 657.056,-514.886 607.637,-610.352 732,-724 735.339,-727.051 738.917,-729.95 742.655,-732.697"/>
<polygon fill="gray" stroke="gray" points="740.836,-735.693 751.061,-738.467 744.798,-729.922 740.836,-735.693"/>
</g>
<!-- nid&#45;17&#45;ampout&#45;&gt;nid&#45;1f&#45;in -->
<g id="edge35" class="edge"><title>nid&#45;17&#45;ampout&#45;&gt;nid&#45;1f&#45;in</title>
<path fill="none" stroke="#333333" d="M466.861,-368.169C483.72,-374.484 511.526,-386.295 532,-402 639.485,-484.447 625.021,-548.897 732,-632 734.751,-634.137 737.617,-636.217 740.564,-638.235"/>
<polygon fill="#333333" stroke="#333333" points="738.766,-641.24 749.057,-643.757 742.581,-635.371 738.766,-641.24"/>
</g>
<!-- nid&#45;17&#45;ampout&#45;&gt;nid&#45;21&#45;in -->
<g id="edge39" class="edge"><title>nid&#45;17&#45;ampout&#45;&gt;nid&#45;21&#45;in</title>
<path fill="none" stroke="gray" stroke-dasharray="5,2" d="M465.341,-368.76C481.484,-375.898 509.32,-388.748 532,-402 625.245,-456.483 639.09,-484.948 732,-540 735.891,-542.306 739.912,-544.607 743.999,-546.883"/>
<polygon fill="gray" stroke="gray" points="742.573,-550.092 753.027,-551.814 745.929,-543.948 742.573,-550.092"/>
</g>
<!-- nid&#45;22&#45;ampin&#45;23 -->
<g id="node31" class="node"><title>nid&#45;22&#45;ampin&#45;23</title>
<polygon fill="none" stroke="#c8c8c8" points="906.286,-377 783.607,-400 783.607,-354 906.286,-377"/>
<text text-anchor="middle" x="824.5" y="-373.3" font-family="Times,serif" font-size="14.00">2 (0x17)</text>
</g>
<!-- nid&#45;17&#45;ampout&#45;&gt;nid&#45;22&#45;ampin&#45;23 -->
<g id="edge45" class="edge"><title>nid&#45;17&#45;ampout&#45;&gt;nid&#45;22&#45;ampin&#45;23</title>
<path fill="none" stroke="#333333" d="M476.089,-363.908C535.87,-366.161 692.032,-372.046 773.069,-375.1"/>
<polygon fill="#333333" stroke="#333333" points="773.39,-378.614 783.515,-375.493 773.654,-371.619 773.39,-378.614"/>
</g>
<!-- nid&#45;17&#45;ampout&#45;&gt;nid&#45;24 -->
<g id="edge48" class="edge"><title>nid&#45;17&#45;ampout&#45;&gt;nid&#45;24</title>
<path fill="none" stroke="gray" stroke-dasharray="5,2" d="M471.973,-360.204C531.781,-351.833 710.052,-326.88 787.223,-316.078"/>
<polygon fill="gray" stroke="gray" points="788,-319.503 797.418,-314.651 787.03,-312.571 788,-319.503"/>
</g>
<!-- nid&#45;1b&#45;ampin -->
<g id="node22" class="node"><title>nid&#45;1b&#45;ampin</title>
<polygon fill="none" stroke="#0000ff" points="116,-1127 75.5,-1145 75.5,-1109 116,-1127"/>
</g>
<!-- nid&#45;1b&#45;ampin&#45;&gt;nid&#45;1b&#45;out -->
<g id="edge22" class="edge"><title>nid&#45;1b&#45;ampin&#45;&gt;nid&#45;1b&#45;out</title>
<path fill="none" stroke="#0000ff" d="M116.18,-1127C169.298,-1127 291.542,-1127 372.427,-1127"/>
<polygon fill="#0000ff" stroke="#0000ff" points="372.694,-1128.75 377.694,-1127 372.694,-1125.25 372.694,-1128.75"/>
</g>
<!-- nid&#45;1d&#45;ampin -->
<g id="node25" class="node"><title>nid&#45;1d&#45;ampin</title>
<polygon fill="none" stroke="#0000ff" points="116,-851 75.5,-869 75.5,-833 116,-851"/>
</g>
<!-- nid&#45;1d&#45;ampin&#45;&gt;nid&#45;1d&#45;out -->
<g id="edge29" class="edge"><title>nid&#45;1d&#45;ampin&#45;&gt;nid&#45;1d&#45;out</title>
<path fill="none" stroke="#0000ff" d="M116.18,-851C169.298,-851 291.542,-851 372.427,-851"/>
<polygon fill="#0000ff" stroke="#0000ff" points="372.694,-852.75 377.694,-851 372.694,-849.25 372.694,-852.75"/>
</g>
<!-- nid&#45;22&#45;ampin&#45;16&#45;&gt;nid&#45;22 -->
<g id="edge40" class="edge"><title>nid&#45;22&#45;ampin&#45;16&#45;&gt;nid&#45;22</title>
<path fill="none" stroke="#c8c8c8" d="M866.596,-497.533C934.16,-485.257 1067.98,-460.942 1135.98,-448.588"/>
<polygon fill="#c8c8c8" stroke="#c8c8c8" points="1136.55,-450.263 1141.16,-447.647 1135.92,-446.819 1136.55,-450.263"/>
</g>
<!-- nid&#45;22&#45;ampin&#45;17&#45;&gt;nid&#45;22 -->
<g id="edge41" class="edge"><title>nid&#45;22&#45;ampin&#45;17&#45;&gt;nid&#45;22</title>
<path fill="none" stroke="#c8c8c8" d="M906.311,-441C976.106,-441 1074.48,-441 1131.63,-441"/>
<polygon fill="#c8c8c8" stroke="#c8c8c8" points="1131.69,-442.75 1136.69,-441 1131.69,-439.25 1131.69,-442.75"/>
</g>
<!-- nid&#45;22&#45;ampin&#45;23&#45;&gt;nid&#45;22 -->
<g id="edge42" class="edge"><title>nid&#45;22&#45;ampin&#45;23&#45;&gt;nid&#45;22</title>
<path fill="none" stroke="#c8c8c8" d="M866.596,-384.467C934.16,-396.743 1067.98,-421.058 1135.98,-433.412"/>
<polygon fill="#c8c8c8" stroke="#c8c8c8" points="1135.92,-435.181 1141.16,-434.353 1136.55,-431.737 1135.92,-435.181"/>
</g>
<!-- nid&#45;25 -->
<g id="node33" class="node"><title>nid&#45;25</title>
<ellipse fill="none" stroke="red" cx="451" cy="-1219" rx="65.1077" ry="26.7407"/>
<text text-anchor="middle" x="451" y="-1222.8" font-family="Times,serif" font-size="14.00">0x25</text>
<text text-anchor="middle" x="451" y="-1207.8" font-family="Times,serif" font-size="14.00">Stereo Digital</text>
</g>
<!-- nid&#45;26&#45;out -->
<g id="node34" class="node"><title>nid&#45;26&#45;out</title>
<polygon fill="none" stroke="green" points="162,-1253 16,-1253 16,-1185 162,-1185 162,-1253"/>
<text text-anchor="middle" x="89" y="-1237.8" font-family="Times,serif" font-size="14.00">0x26</text>
<text text-anchor="middle" x="89" y="-1222.8" font-family="Times,serif" font-size="14.00">[N/A] Other at Ext N/A</text>
<text text-anchor="middle" x="89" y="-1207.8" font-family="Times,serif" font-size="14.00">Stereo Digital</text>
<text text-anchor="middle" x="89" y="-1192.8" font-family="Times,serif" font-size="14.00">IN Detect</text>
</g>
<!-- nid&#45;26&#45;out&#45;&gt;nid&#45;25 -->
<g id="edge49" class="edge"><title>nid&#45;26&#45;out&#45;&gt;nid&#45;25</title>
<path fill="none" stroke="#333333" d="M162.418,-1219C224.365,-1219 313.164,-1219 375.659,-1219"/>
<polygon fill="#333333" stroke="#333333" points="375.842,-1222.5 385.842,-1219 375.842,-1215.5 375.842,-1222.5"/>
</g>
</g>
</svg>
